<?xml version="1.0" encoding="UTF-8" standalone="no"?>
<!-- Generator: Adobe Illustrator 19.0.0, SVG Export Plug-In . SVG Version: 6.00 Build 0)  -->

<svg
   xmlns:dc="http://purl.org/dc/elements/1.1/"
   xmlns:cc="http://creativecommons.org/ns#"
   xmlns:rdf="http://www.w3.org/1999/02/22-rdf-syntax-ns#"
   xmlns:svg="http://www.w3.org/2000/svg"
   xmlns="http://www.w3.org/2000/svg"
   xmlns:sodipodi="http://sodipodi.sourceforge.net/DTD/sodipodi-0.dtd"
   xmlns:inkscape="http://www.inkscape.org/namespaces/inkscape"
   version="1.1"
   id="Capa_1"
   x="0px"
   y="0px"
   viewBox="0 0 476.737 476.737"
   style="enable-background:new 0 0 476.737 476.737;"
   xml:space="preserve"
   inkscape:version="0.91 r13725"
   sodipodi:docname="close-icon.svg"><metadata
     id="metadata45"><rdf:RDF><cc:Work
         rdf:about=""><dc:format>image/svg+xml</dc:format><dc:type
           rdf:resource="http://purl.org/dc/dcmitype/StillImage" /></cc:Work></rdf:RDF></metadata><defs
     id="defs43" /><sodipodi:namedview
     pagecolor="#ffffff"
     bordercolor="#666666"
     borderopacity="1"
     objecttolerance="10"
     gridtolerance="10"
     guidetolerance="10"
     inkscape:pageopacity="0"
     inkscape:pageshadow="2"
     inkscape:window-width="1115"
     inkscape:window-height="751"
     id="namedview41"
     showgrid="false"
     inkscape:zoom="0.49503185"
     inkscape:cx="238.3685"
     inkscape:cy="238.3685"
     inkscape:window-x="2194"
     inkscape:window-y="166"
     inkscape:window-maximized="0"
     inkscape:current-layer="Capa_1" /><circle
     style="fill:#ffffff;fill-opacity:1;stroke:none;stroke-width:20;stroke-linecap:round;stroke-linejoin:round;stroke-miterlimit:4;stroke-dasharray:none;stroke-opacity:1"
     id="path4175"
     cx="240.38858"
     cy="234.32835"
     r="224.228" /><g
     id="g3"><g
       id="g5"><g
         id="g7"><path
           style="fill:#010002;"
           d="M238.369,0C106.726,0,0,106.726,0,238.369c0,131.675,106.726,238.369,238.369,238.369     c131.675,0,238.369-106.694,238.369-238.369C476.737,106.726,370.043,0,238.369,0z M348.813,150.395l-88.578,88.61l78.407,87.338     c6.198,6.198,6.198,16.304,0,22.47c-6.166,6.198-16.273,6.198-22.438,0l-78.407-87.338l-87.37,87.338     c-6.198,6.198-16.273,6.198-22.47,0c-6.198-6.166-6.198-16.273,0-22.47l88.578-88.578l-78.376-87.37     c-6.198-6.198-6.198-16.273,0-22.47s16.273-6.198,22.47,0l78.407,87.37l87.338-87.37c6.198-6.198,16.273-6.198,22.47,0     C355.042,134.122,355.01,144.197,348.813,150.395z"
           id="path9" /></g></g></g><g
     id="g11" /><g
     id="g13" /><g
     id="g15" /><g
     id="g17" /><g
     id="g19" /><g
     id="g21" /><g
     id="g23" /><g
     id="g25" /><g
     id="g27" /><g
     id="g29" /><g
     id="g31" /><g
     id="g33" /><g
     id="g35" /><g
     id="g37" /><g
     id="g39" /></svg>