<?xml version="1.0" encoding="UTF-8" standalone="no"?>
<!-- Generator: Adobe Illustrator 16.2.1, SVG Export Plug-In . SVG Version: 6.00 Build 0)  -->

<svg
   xmlns:dc="http://purl.org/dc/elements/1.1/"
   xmlns:cc="http://creativecommons.org/ns#"
   xmlns:rdf="http://www.w3.org/1999/02/22-rdf-syntax-ns#"
   xmlns:svg="http://www.w3.org/2000/svg"
   xmlns="http://www.w3.org/2000/svg"
   xmlns:sodipodi="http://sodipodi.sourceforge.net/DTD/sodipodi-0.dtd"
   xmlns:inkscape="http://www.inkscape.org/namespaces/inkscape"
   version="1.1"
   id="Layer_1"
   x="0px"
   y="0px"
   width="448"
   height="448"
   viewBox="0 0 448 448"
   xml:space="preserve"
   inkscape:version="0.91 r13725"
   sodipodi:docname="done-icon-green.svg"><metadata
     id="metadata11"><rdf:RDF><cc:Work
         rdf:about=""><dc:format>image/svg+xml</dc:format><dc:type
           rdf:resource="http://purl.org/dc/dcmitype/StillImage" /><dc:title /></cc:Work></rdf:RDF></metadata><defs
     id="defs9" /><sodipodi:namedview
     pagecolor="#ffffff"
     bordercolor="#666666"
     borderopacity="1"
     objecttolerance="10"
     gridtolerance="10"
     guidetolerance="10"
     inkscape:pageopacity="0"
     inkscape:pageshadow="2"
     inkscape:window-width="1067"
     inkscape:window-height="684"
     id="namedview7"
     showgrid="false"
     fit-margin-top="0"
     fit-margin-left="0"
     fit-margin-right="0"
     fit-margin-bottom="0"
     inkscape:zoom="0.4609375"
     inkscape:cx="-128.54237"
     inkscape:cy="224"
     inkscape:window-x="96"
     inkscape:window-y="0"
     inkscape:window-maximized="0"
     inkscape:current-layer="Layer_1" /><g
     id="g3"
     transform="translate(-32,-32)"
     style="fill:#008000"><path
       d="M 256,32 C 132.3,32 32,132.3 32,256 32,379.7 132.3,480 256,480 379.7,480 480,379.7 480,256 480,132.3 379.7,32 256,32 Z M 370.9,181.1 231.8,359.6 c -1.1,1.1 -2.9,3.5 -5.1,3.5 -2.3,0 -3.8,-1.6 -5.1,-2.9 -1.3,-1.3 -78.9,-75.9 -78.9,-75.9 l -1.5,-1.5 c -0.6,-0.9 -1.1,-2 -1.1,-3.2 0,-1.2 0.5,-2.3 1.1,-3.2 0.4,-0.4 0.7,-0.7 1.1,-1.2 7.7,-8.1 23.3,-24.5 24.3,-25.5 1.3,-1.3 2.4,-3 4.8,-3 2.5,0 4.1,2.1 5.3,3.3 1.2,1.2 45,43.3 45,43.3 L 333,150.3 c 1,-0.8 2.2,-1.4 3.5,-1.4 1.3,0 2.5,0.5 3.5,1.3 l 30.6,24.1 c 0.8,1 1.3,2.2 1.3,3.5 0.1,1.3 -0.4,2.4 -1,3.3 z"
       id="path5"
       inkscape:connector-curvature="0"
       style="fill:#008000" /></g></svg>