<?xml version="1.0" encoding="utf-8"?>
<!-- Generator: Adobe Illustrator 19.1.0, SVG Export Plug-In . SVG Version: 6.00 Build 0)  -->
<svg version="1.1"
	 id="Layer_1" xmlns:sodipodi="http://sodipodi.sourceforge.net/DTD/sodipodi-0.dtd" xmlns:dc="http://purl.org/dc/elements/1.1/" xmlns:rdf="http://www.w3.org/1999/02/22-rdf-syntax-ns#" xmlns:cc="http://creativecommons.org/ns#" xmlns:svg="http://www.w3.org/2000/svg" xmlns:inkscape="http://www.inkscape.org/namespaces/inkscape" inkscape:version="0.91 r13725" sodipodi:docname="done-icon.svg"
	 xmlns="http://www.w3.org/2000/svg" xmlns:xlink="http://www.w3.org/1999/xlink" x="0px" y="0px" viewBox="39 -24 448 448"
	 style="enable-background:new 39 -24 448 448;" xml:space="preserve">
<style type="text/css">
	.st0{fill:#FFFFFF;}
	.st1{fill:#008000;}
</style>
<sodipodi:namedview  gridtolerance="10" guidetolerance="10" pagecolor="#ffffff" objecttolerance="10" inkscape:cy="224" fit-margin-left="0" bordercolor="#666666" id="namedview7" fit-margin-top="0" borderopacity="1" inkscape:cx="-300.47458" showgrid="false" inkscape:zoom="0.4609375" inkscape:window-width="1819" inkscape:pageshadow="2" inkscape:pageopacity="0" inkscape:window-height="826" fit-margin-right="0" fit-margin-bottom="0" inkscape:window-y="0" inkscape:window-maximized="0" inkscape:current-layer="Layer_1" inkscape:window-x="96">
	</sodipodi:namedview>
<rect id="rect4134" x="134.4" y="46.4" class="st0" width="321.1" height="262.5"/>
<g id="g3" transform="translate(-32,-32)">
	<path id="path5" inkscape:connector-curvature="0" class="st1" d="M295,8C171.3,8,71,108.3,71,232s100.3,224,224,224
		s224-100.3,224-224S418.7,8,295,8z M409.9,157.1L270.8,335.6c-1.1,1.1-2.9,3.5-5.1,3.5c-2.3,0-3.8-1.6-5.1-2.9
		c-1.3-1.3-78.9-75.9-78.9-75.9l-1.5-1.5c-0.6-0.9-1.1-2-1.1-3.2s0.5-2.3,1.1-3.2c0.4-0.4,0.7-0.7,1.1-1.2
		c7.7-8.1,23.3-24.5,24.3-25.5c1.3-1.3,2.4-3,4.8-3c2.5,0,4.1,2.1,5.3,3.3s45,43.3,45,43.3l111.3-143c1-0.8,2.2-1.4,3.5-1.4
		s2.5,0.5,3.5,1.3l30.6,24.1c0.8,1,1.3,2.2,1.3,3.5C411,155.1,410.5,156.2,409.9,157.1L409.9,157.1z"/>
</g>
</svg>
