<?xml version="1.0" encoding="utf-8"?>
<!-- Generator: Adobe Illustrator 19.1.0, SVG Export Plug-In . SVG Version: 6.00 Build 0)  -->
<svg version="1.1"
	 id="Layer_1" xmlns:sodipodi="http://sodipodi.sourceforge.net/DTD/sodipodi-0.dtd" xmlns:dc="http://purl.org/dc/elements/1.1/" xmlns:rdf="http://www.w3.org/1999/02/22-rdf-syntax-ns#" xmlns:cc="http://creativecommons.org/ns#" xmlns:svg="http://www.w3.org/2000/svg" xmlns:inkscape="http://www.inkscape.org/namespaces/inkscape" inkscape:version="0.91 r13725" sodipodi:docname="done-icon.svg"
	 xmlns="http://www.w3.org/2000/svg" xmlns:xlink="http://www.w3.org/1999/xlink" x="0px" y="0px" viewBox="39 -24 448 448"
	 style="enable-background:new 39 -24 448 448;" xml:space="preserve">
<style type="text/css">
	.st0{fill:#008000;}
	.st1{fill:#FFFFFF;stroke:#FFFFFF;}
</style>
<sodipodi:namedview  gridtolerance="10" guidetolerance="10" pagecolor="#ffffff" objecttolerance="10" inkscape:cy="224" fit-margin-left="0" bordercolor="#666666" id="namedview7" fit-margin-top="0" borderopacity="1" inkscape:cx="-300.47458" showgrid="false" inkscape:zoom="0.4609375" inkscape:window-width="1819" inkscape:pageshadow="2" inkscape:pageopacity="0" inkscape:window-height="826" fit-margin-right="0" fit-margin-bottom="0" inkscape:window-y="0" inkscape:window-maximized="0" inkscape:current-layer="Layer_1" inkscape:window-x="96">
	</sodipodi:namedview>
<g id="g3" transform="translate(-32,-32)">
	<path id="path5" inkscape:connector-curvature="0" class="st0" d="M295,8C171.3,8,71,108.3,71,232s100.3,224,224,224
		s224-100.3,224-224S418.7,8,295,8z"/>
</g>
<g>
	<path class="st1" d="M81.3,158.9h25.9c6.7,0,12.5,0.6,17.3,1.9c4.8,1.2,9.2,3.6,13.1,7c10.2,8.7,15.3,22,15.3,39.9
		c0,5.9-0.5,11.3-1.5,16.1c-1,4.9-2.6,9.2-4.7,13.1c-2.1,3.9-4.9,7.4-8.2,10.5c-2.6,2.4-5.5,4.3-8.6,5.7c-3.1,1.4-6.5,2.4-10.1,3
		s-7.6,0.9-12.1,0.9h-26c-3.6,0-6.3-0.5-8.2-1.6c-1.8-1.1-3-2.6-3.6-4.6s-0.8-4.6-0.8-7.7v-71.9c0-4.3,1-7.4,2.9-9.3
		C73.9,159.9,77,158.9,81.3,158.9z M89,174.7v66.6h15.1c3.3,0,5.9-0.1,7.8-0.3c1.9-0.2,3.8-0.6,5.8-1.3c2-0.7,3.7-1.7,5.2-3
		c6.6-5.6,10-15.3,10-29c0-9.7-1.5-16.9-4.4-21.7c-2.9-4.8-6.5-7.9-10.8-9.2c-4.3-1.3-9.5-2-15.5-2L89,174.7L89,174.7z"/>
	<path class="st1" d="M213.6,157.3c10.2,0,18.9,2.1,26.2,6.2c7.3,4.1,12.8,10,16.6,17.6c3.7,7.6,5.6,16.5,5.6,26.8
		c0,7.6-1,14.5-3.1,20.7c-2.1,6.2-5.1,11.6-9.2,16.1c-4.1,4.5-9.1,8-15.1,10.4s-12.8,3.6-20.5,3.6s-14.5-1.2-20.6-3.7
		s-11.1-6-15.2-10.5c-4.1-4.5-7.1-9.9-9.2-16.3c-2.1-6.3-3.1-13.2-3.1-20.5c0-7.5,1.1-14.4,3.2-20.7c2.2-6.3,5.3-11.6,9.4-16.1
		c4.1-4.4,9.1-7.8,15-10.1C199.4,158.4,206.1,157.3,213.6,157.3z M241.8,207.7c0-7.2-1.2-13.4-3.5-18.7c-2.3-5.3-5.6-9.2-9.9-11.9
		c-4.3-2.7-9.2-4-14.8-4c-4,0-7.6,0.7-11,2.2s-6.3,3.7-8.7,6.5c-2.4,2.9-4.3,6.5-5.8,10.9c-1.4,4.4-2.1,9.4-2.1,15
		s0.7,10.6,2.1,15.1c1.4,4.5,3.4,8.2,6,11.2s5.5,5.2,8.8,6.7s7,2.2,10.9,2.2c5.1,0,9.8-1.3,14-3.8s7.6-6.5,10.2-11.8
		C240.5,222,241.8,215.5,241.8,207.7z"/>
	<path class="st1" d="M304.8,169.2L343,227v-58.3c0-3.8,0.8-6.6,2.4-8.5s3.8-2.8,6.6-2.8c2.9,0,5.1,0.9,6.8,2.8
		c1.6,1.9,2.5,4.7,2.5,8.5v77.1c0,8.6-3.6,12.9-10.7,12.9c-1.8,0-3.4-0.3-4.8-0.8s-2.8-1.3-4-2.4c-1.3-1.1-2.4-2.4-3.5-3.9
		s-2.1-3-3.2-4.6l-37.3-57.1v57.5c0,3.7-0.9,6.6-2.6,8.5s-4,2.9-6.7,2.9c-2.8,0-5.1-1-6.8-2.9c-1.7-1.9-2.5-4.8-2.5-8.5v-75.7
		c0-3.2,0.4-5.7,1.1-7.6c0.8-2,2.3-3.6,4.2-4.9c2-1.3,4.1-1.9,6.4-1.9c1.8,0,3.3,0.3,4.6,0.9c1.3,0.6,2.4,1.4,3.3,2.3
		c1,1,1.9,2.3,2.9,3.8S303.7,167.5,304.8,169.2z"/>
	<path class="st1" d="M447.6,174.3h-44.8v24.1H444c3,0,5.3,0.7,6.8,2c1.5,1.4,2.2,3.2,2.2,5.4c0,2.2-0.7,4-2.2,5.5
		c-1.5,1.4-3.7,2.1-6.8,2.1h-41.2v27.9h46.3c3.1,0,5.5,0.7,7.1,2.2s2.4,3.4,2.4,5.8c0,2.3-0.8,4.2-2.4,5.7s-3.9,2.2-7.1,2.2h-54
		c-4.3,0-7.4-1-9.3-2.9s-2.8-5-2.8-9.3v-73.7c0-2.9,0.4-5.2,1.3-7c0.8-1.8,2.2-3.1,4-3.9c1.8-0.8,4.1-1.2,6.9-1.2h52.4
		c3.2,0,5.5,0.7,7.1,2.1c1.5,1.4,2.3,3.2,2.3,5.5c0,2.3-0.8,4.2-2.3,5.6C453.1,173.5,450.8,174.3,447.6,174.3z"/>
</g>
</svg>
