<?xml version="1.0" encoding="utf-8"?>
<!-- Generator: Adobe Illustrator 19.1.0, SVG Export Plug-In . SVG Version: 6.00 Build 0)  -->
<svg version="1.1"
	 id="svg2" xmlns:dc="http://purl.org/dc/elements/1.1/" xmlns:sodipodi="http://sodipodi.sourceforge.net/DTD/sodipodi-0.dtd" xmlns:cc="http://creativecommons.org/ns#" xmlns:inkscape="http://www.inkscape.org/namespaces/inkscape" xmlns:svg="http://www.w3.org/2000/svg" xmlns:rdf="http://www.w3.org/1999/02/22-rdf-syntax-ns#" sodipodi:docname="help-icon.svg" inkscape:version="0.91 r13725"
	 xmlns="http://www.w3.org/2000/svg" xmlns:xlink="http://www.w3.org/1999/xlink" x="0px" y="0px" viewBox="-84 101 200 200"
	 style="enable-background:new -84 101 200 200;" xml:space="preserve">
<style type="text/css">
	.st0{fill:#FFFFFF;}
	.st1{fill:#FFFFFF;stroke:#000000;stroke-width:12;stroke-miterlimit:10;}
</style>
<sodipodi:namedview  guidetolerance="10" inkscape:cx="100" inkscape:cy="100" inkscape:zoom="1.18" showgrid="false" objecttolerance="10" gridtolerance="10" bordercolor="#666666" borderopacity="1" pagecolor="#ffffff" id="namedview6" inkscape:current-layer="svg2" inkscape:window-maximized="0" inkscape:window-y="210" inkscape:window-x="2043" inkscape:window-height="811" inkscape:window-width="1650" inkscape:pageshadow="2" inkscape:pageopacity="0">
	</sodipodi:namedview>
<circle id="path4144" class="st0" cx="16" cy="200.2" r="94.9"/>
<path id="path2382" class="st0" d="M113.1,200.2c0,53.6-43.5,97.1-97.1,97.1c-53.6,0-97.1-43.5-97.1-97.1c0,0,0,0,0,0
	c0-53.6,43.5-97.1,97.1-97.1C69.6,103,113.1,146.5,113.1,200.2C113.1,200.2,113.1,200.2,113.1,200.2z"/>
<ellipse class="st1" cx="16" cy="202.3" rx="94.6" ry="93.8"/>
<g>
	<path d="M-48,185v14.5h18.1V185c0-2.1,0.4-3.6,1.1-4.7c0.8-1,1.8-1.6,3-1.6c1.3,0,2.3,0.5,3.1,1.5c0.8,1,1.2,2.6,1.2,4.7v39.8
		c0,2.1-0.4,3.7-1.2,4.7s-1.8,1.6-3.1,1.6c-1.3,0-2.3-0.5-3-1.6c-0.8-1-1.1-2.6-1.1-4.7v-17H-48v17c0,2.1-0.4,3.7-1.2,4.7
		s-1.8,1.6-3.1,1.6c-1.3,0-2.3-0.5-3-1.6c-0.8-1-1.1-2.6-1.1-4.7V185c0-2.1,0.4-3.6,1.1-4.7c0.7-1,1.8-1.6,3-1.6
		c1.3,0,2.3,0.5,3.1,1.5C-48.4,181.4-48,182.9-48,185z"/>
	<path d="M14.9,187.6H-4V200h17.4c1.3,0,2.2,0.4,2.9,1.1s0.9,1.6,0.9,2.8s-0.3,2.1-0.9,2.8c-0.6,0.7-1.6,1.1-2.9,1.1H-4v14.4h19.6
		c1.3,0,2.3,0.4,3,1.1c0.7,0.7,1,1.7,1,3c0,1.2-0.3,2.2-1,2.9c-0.7,0.7-1.7,1.1-3,1.1H-7.3c-1.8,0-3.1-0.5-3.9-1.5
		c-0.8-1-1.2-2.6-1.2-4.8v-38c0-1.5,0.2-2.7,0.5-3.6c0.4-0.9,0.9-1.6,1.7-2c0.8-0.4,1.7-0.6,2.9-0.6h22.2c1.3,0,2.3,0.4,3,1.1
		c0.7,0.7,1,1.7,1,2.8c0,1.2-0.3,2.2-1,2.9S16.2,187.6,14.9,187.6z"/>
	<path d="M34.5,185v36.8h17c1.4,0,2.4,0.4,3.1,1.2c0.7,0.8,1.1,1.8,1.1,3c0,1.2-0.4,2.2-1.1,3c-0.7,0.8-1.8,1.2-3.1,1.2H31.2
		c-1.8,0-3.1-0.5-3.9-1.5s-1.2-2.6-1.2-4.8V185c0-2.1,0.4-3.6,1.1-4.7c0.8-1,1.8-1.6,3-1.6c1.3,0,2.3,0.5,3.1,1.5
		C34.1,181.4,34.5,182.9,34.5,185z"/>
	<path d="M77.3,210.5h-7.7v14.3c0,2-0.4,3.6-1.2,4.7c-0.8,1.1-1.8,1.6-3,1.6c-1.3,0-2.3-0.5-3.1-1.6c-0.8-1-1.2-2.6-1.2-4.6v-39
		c0-2.3,0.4-3.9,1.3-4.8c0.8-1,2.2-1.4,4-1.4h10.8c3.2,0,5.6,0.3,7.4,0.9c1.7,0.6,3.2,1.5,4.4,2.9c1.2,1.3,2.2,3,2.8,4.9
		s1,4.1,1,6.5c0,5.1-1.3,9-3.9,11.7C86.4,209.2,82.5,210.5,77.3,210.5z M75.3,187.4h-5.7v15.4h5.7c2,0,3.6-0.3,5-0.8
		c1.3-0.5,2.3-1.3,3-2.5c0.7-1.1,1-2.7,1-4.5c0-2.2-0.5-4-1.6-5.4C81.5,188.1,79.1,187.4,75.3,187.4z"/>
</g>
</svg>
